<?xml version="1.0" encoding="utf-8"?>
<!-- Generator: Adobe Illustrator 22.1.0, SVG Export Plug-In . SVG Version: 6.00 Build 0)  -->
<svg version="1.1" id="Layer_1" xmlns="http://www.w3.org/2000/svg" xmlns:xlink="http://www.w3.org/1999/xlink" x="0px" y="0px"
	 viewBox="0 0 64 64" style="enable-background:new 0 0 64 64;" xml:space="preserve">
<style type="text/css">
	.st0{fill:#606060;}
</style>
<g>
	<g>
		<rect x="13.4" y="41.3" class="st0" width="9.7" height="9.7"/>
		<rect x="13.4" y="41.3" class="st0" width="9.7" height="9.7"/>
		<rect x="13.4" y="41.3" class="st0" width="9.7" height="9.7"/>
		<rect x="13.4" y="41.3" class="st0" width="9.7" height="9.7"/>
		<rect x="13.4" y="41.3" class="st0" width="9.7" height="9.7"/>
		<rect x="13.4" y="41.3" class="st0" width="9.7" height="9.7"/>
		<rect x="13.4" y="41.3" class="st0" width="9.7" height="9.7"/>
		<rect x="13.4" y="41.3" class="st0" width="9.7" height="9.7"/>
		<rect x="13.4" y="41.3" class="st0" width="9.7" height="9.7"/>
		<rect x="13.4" y="27.2" class="st0" width="9.7" height="9.7"/>
		<rect x="13.4" y="13.1" class="st0" width="9.7" height="9.7"/>
	</g>
	<g>
		<rect x="40.9" y="41.3" class="st0" width="9.7" height="9.7"/>
		<rect x="40.9" y="41.3" class="st0" width="9.7" height="9.7"/>
		<rect x="40.9" y="41.3" class="st0" width="9.7" height="9.7"/>
		<rect x="40.9" y="41.3" class="st0" width="9.7" height="9.7"/>
		<rect x="40.9" y="41.3" class="st0" width="9.7" height="9.7"/>
		<rect x="40.9" y="41.3" class="st0" width="9.7" height="9.7"/>
		<rect x="40.9" y="41.3" class="st0" width="9.7" height="9.7"/>
		<rect x="40.9" y="41.3" class="st0" width="9.7" height="9.7"/>
		<rect x="40.9" y="41.3" class="st0" width="9.7" height="9.7"/>
		<rect x="40.9" y="27.2" class="st0" width="9.7" height="9.7"/>
		<rect x="40.9" y="13.1" class="st0" width="9.7" height="9.7"/>
	</g>
	<g>
		<rect x="27.2" y="41.3" class="st0" width="9.7" height="9.7"/>
		<rect x="27.2" y="41.3" class="st0" width="9.7" height="9.7"/>
		<rect x="27.2" y="41.3" class="st0" width="9.7" height="9.7"/>
		<rect x="27.2" y="41.3" class="st0" width="9.7" height="9.7"/>
		<rect x="27.2" y="41.3" class="st0" width="9.7" height="9.7"/>
		<rect x="27.2" y="41.3" class="st0" width="9.7" height="9.7"/>
		<rect x="27.2" y="41.3" class="st0" width="9.7" height="9.7"/>
		<rect x="27.2" y="41.3" class="st0" width="9.7" height="9.7"/>
		<rect x="27.2" y="41.3" class="st0" width="9.7" height="9.7"/>
		<rect x="27.2" y="27.2" class="st0" width="9.7" height="9.7"/>
		<rect x="27.2" y="13.1" class="st0" width="9.7" height="9.7"/>
	</g>
</g>
</svg>
