<?xml version="1.0" encoding="utf-8"?>
<!-- Generator: Adobe Illustrator 22.1.0, SVG Export Plug-In . SVG Version: 6.00 Build 0)  -->
<svg version="1.1" id="Layer_1" xmlns="http://www.w3.org/2000/svg" xmlns:xlink="http://www.w3.org/1999/xlink" x="0px" y="0px"
	 viewBox="0 0 512 512" style="enable-background:new 0 0 512 512;" xml:space="preserve">
<style type="text/css">
	.st0{fill:#606060;}
	.st1{fill:#FFFFFF;}
</style>
<path class="st0" d="M511,61v274c0,14.8-8.1,26.7-18,26.7H140c-10,0-18-12-18-26.7V61c0-14.8,8.1-26.7,18-26.7h353
	C502.9,34.3,510.9,46.3,511,61z"/>
<path class="st0" d="M451.6,381.4v69c0,17.6-9.3,31.8-20.8,31.8H22.3c-11.5,0-20.8-14.3-20.8-31.8V124.1c0-17.6,9.3-31.8,20.8-31.8
	h79.9v262.4c0,14.7,8,26.7,18,26.7H451.6z"/>
<path class="st0" d="M471.4,104.3v257.3H140c-10,0-18-12-18-26.7V72.5h328.6C462.1,72.5,471.3,86.8,471.4,104.3z"/>
<polygon class="st1" points="420,201 327.2,254.1 234.4,307.3 234.8,200.4 235.1,93.4 327.5,147.3 "/>
</svg>
