<?xml version="1.0" encoding="utf-8"?>
<!-- Generator: Adobe Illustrator 22.1.0, SVG Export Plug-In . SVG Version: 6.00 Build 0)  -->
<svg version="1.1" id="Layer_1" xmlns="http://www.w3.org/2000/svg" xmlns:xlink="http://www.w3.org/1999/xlink" x="0px" y="0px"
	 viewBox="0 0 512 390" style="enable-background:new 0 0 512 390;" xml:space="preserve">
<style type="text/css">
	.st0{fill:#606060;}
	.st1{fill:#FFFFFF;}
</style>
<path class="st0" d="M487.8,101.3H24.2c-13,0-23.6,10.5-23.6,23.6v242.3c0,13,10.5,23.6,23.6,23.6h463.6c13,0,23.6-10.5,23.6-23.6
	V124.9C511.3,111.9,500.8,101.3,487.8,101.3z"/>
<path class="st0" d="M459.2,45.1H53.4c-7.8,0-14.2,6.3-14.2,14.2v18.8c0,7.8,6.3,14.2,14.2,14.2h405.7c7.8,0,14.2-6.3,14.2-14.2
	V59.3C473.3,51.5,467,45.1,459.2,45.1z"/>
<path class="st0" d="M339.8,3.4h-167c-4.6,0-8.4,3.8-8.4,8.4v11.5c0,4.6,3.8,8.4,8.4,8.4h166.9c4.6,0,8.4-3.8,8.4-8.4V11.8
	C348.2,7.2,344.4,3.4,339.8,3.4z"/>
<polygon class="st1" points="347.5,248.7 265.4,295.7 183.4,342.8 183.7,248.2 184,153.6 265.7,201.2 "/>
</svg>
